<svg xmlns="http://www.w3.org/2000/svg" viewBox="0 0 467 358" fill="none">
  <polygon points="333,1 204,1 0,207 59,266 139,266 196,208 73,206 226,53 279,54" fill="#FFFFFF"/>
  <polygon points="376,258 339,223 262,300 157,300 100,357 279,357" fill="#FFFFFF"/>
  <polygon points="357,160 280,160 173,268 252,267" fill="#FFFFFF"/>
  <polygon points="307,84 238,84 143,179 220,179 257,142" fill="#FFFFFF"/>
  <polygon points="308,84 267,132 359,132 394,167 340,221 377,259 466,169 382,84" fill="#2B37BB"/>
</svg>